<?xml version="1.0" encoding="UTF-8"?><svg xmlns="http://www.w3.org/2000/svg" viewBox="0 0 277.89 121.58"><defs><style>.d{fill:#fff;}</style></defs><g id="a"/><g id="b"><g id="c"><g><g><path class="d" d="M42.79,26.75h5.21l23.22,52.08h-7.59l-6.9-15.35h-22.09l-6.47,15.35h-7.62L42.79,26.75Zm10.89,30.14l-8.36-18.76-7.75,18.76h16.1Z"/><path class="d" d="M116.94,27.04h6.93v51.79h-7.45V38.54l-15.92,20.02h-1.37l-16.11-20.02v40.3h-7.41V27.04h7.02l17.21,21.27,17.11-21.27Z"/><path class="d" d="M150.29,78.83h-17.53V27.04h13.57c4.27,0,7.61,.57,10.01,1.72,2.4,1.15,4.23,2.73,5.49,4.75,1.26,2.01,1.89,4.34,1.89,6.99,0,5.09-2.63,8.74-7.9,10.94,3.78,.72,6.79,2.27,9.03,4.67,2.24,2.4,3.35,5.26,3.35,8.6,0,2.64-.68,5-2.04,7.08-1.36,2.08-3.35,3.77-5.99,5.08-2.63,1.31-5.93,1.96-9.88,1.96Zm-3.74-45.19h-6.38v15.57h4.93c3.95,0,6.76-.75,8.43-2.26,1.67-1.51,2.5-3.46,2.5-5.86,0-4.97-3.16-7.45-9.49-7.45Zm.56,22.17h-6.93v16.42h7.3c4.05,0,6.8-.32,8.25-.95s2.61-1.61,3.48-2.95,1.32-2.77,1.32-4.3-.46-3.03-1.39-4.34c-.93-1.31-2.24-2.29-3.95-2.93-1.71-.64-4.4-.96-8.08-.96Z"/><path class="d" d="M175.12,27.04h29.36v6.6h-21.95v15.79h21.2v6.64h-21.2v16.09h22.65v6.6h-30.06V27.04Z"/><path class="d" d="M214.82,78.83V27.04h12.97c5.24,0,9.4,1.3,12.47,3.89,3.08,2.59,4.62,6.1,4.62,10.53,0,3.02-.75,5.62-2.26,7.82-1.51,2.2-3.25,3.83-6.06,5.37l13.12,24.17h-8.82l-11.52-22.54s-2.75,0-5.18,0h-1.93v22.54h-7.41Zm9.64-45.49h-2.22v16.35h2.82c3.76,0,6.33-.32,7.73-.96,1.4-.64,2.48-1.61,3.26-2.91,.78-1.3,1.17-2.77,1.17-4.43s-.43-3.11-1.3-4.43c-.86-1.32-2.08-2.26-3.65-2.8-1.57-.54-4.17-.82-7.8-.82Z"/></g><g><path class="d" d="M125.49,89.14v7.84h-2.15v-6.01c0-1.2-.16-2.03-.48-2.51-.32-.47-.88-.71-1.68-.71-.45,0-.86,.1-1.23,.31-.37,.2-.8,.56-1.27,1.08v7.84h-2.14v-10.8h2.14v1.42c1.09-1.09,2.15-1.63,3.19-1.63,1.37,0,2.43,.65,3.18,1.95,1.14-1.31,2.34-1.97,3.58-1.97,1.05,0,1.91,.38,2.59,1.15,.68,.77,1.02,1.94,1.02,3.51v6.37h-2.14v-6.4c0-.9-.18-1.59-.55-2.07-.37-.48-.9-.72-1.58-.72-.88,0-1.71,.45-2.48,1.34Z"/><path class="d" d="M140.65,86.16c1.64,0,3.01,.53,4.1,1.59,1.09,1.06,1.63,2.39,1.63,4s-.55,2.85-1.66,3.88c-1.1,1.03-2.49,1.54-4.17,1.54s-2.97-.52-4.06-1.57c-1.09-1.05-1.63-2.35-1.63-3.91s.55-2.9,1.65-3.95c1.1-1.05,2.48-1.58,4.14-1.58Zm-.12,1.93c-1.03,0-1.87,.34-2.52,1.01-.66,.67-.99,1.53-.99,2.57s.34,1.88,1.01,2.53c.67,.65,1.54,.98,2.59,.98s1.91-.33,2.58-.99c.67-.66,1-1.51,1-2.54s-.35-1.87-1.04-2.55c-.7-.67-1.57-1.01-2.63-1.01Z"/><path class="d" d="M155.68,86.19h2.32l-4.77,10.99h-.72l-4.88-10.99h2.34l2.91,6.64,2.81-6.64Z"/><path class="d" d="M161.01,81.64c.35,0,.65,.12,.9,.36s.38,.54,.38,.89-.12,.64-.38,.89-.55,.38-.9,.38c-.33,0-.62-.13-.87-.38-.25-.25-.38-.55-.38-.89s.12-.62,.38-.87c.25-.25,.54-.38,.87-.38Zm-1.06,4.54h2.14v10.8h-2.14v-10.8Z"/><path class="d" d="M167.62,86.19v1.37c.95-1.06,2.04-1.59,3.25-1.59,.67,0,1.3,.17,1.88,.52s1.02,.83,1.32,1.43,.45,1.57,.45,2.88v6.17h-2.14v-6.15c0-1.1-.17-1.89-.51-2.37s-.9-.71-1.69-.71c-1.01,0-1.87,.51-2.57,1.51v7.71h-2.18v-10.8h2.18Z"/><path class="d" d="M177.27,89.92c0-1.15,.42-2.06,1.26-2.73,.84-.67,1.99-1,3.45-1h4.45v1.67h-2.18c.42,.43,.72,.82,.88,1.17s.25,.76,.25,1.21c0,.56-.16,1.12-.48,1.66-.32,.54-.73,.96-1.24,1.25-.5,.29-1.33,.52-2.48,.69-.81,.12-1.21,.4-1.21,.83,0,.25,.15,.46,.45,.62,.3,.16,.85,.33,1.64,.5,1.32,.29,2.17,.52,2.55,.68s.72,.4,1.03,.7c.52,.52,.77,1.17,.77,1.95,0,1.03-.46,1.84-1.37,2.45-.91,.61-2.13,.92-3.66,.92s-2.77-.31-3.69-.92c-.92-.62-1.38-1.44-1.38-2.47,0-1.46,.9-2.41,2.71-2.83-.72-.46-1.08-.92-1.08-1.37,0-.34,.15-.66,.46-.94s.73-.49,1.25-.62c-1.59-.7-2.38-1.84-2.38-3.42Zm3.51,7.57c-.72,0-1.31,.15-1.77,.46-.46,.31-.69,.7-.69,1.17,0,1.11,1,1.67,3.01,1.67,.95,0,1.68-.14,2.2-.42,.52-.28,.78-.67,.78-1.18s-.33-.91-.99-1.23c-.66-.32-1.51-.48-2.55-.48Zm.5-9.45c-.58,0-1.07,.2-1.48,.59s-.61,.86-.61,1.41,.2,1.02,.6,1.38c.4,.36,.9,.55,1.51,.55s1.11-.19,1.51-.56,.6-.84,.6-1.39-.2-1.03-.61-1.41-.92-.56-1.53-.56Z"/><path class="d" d="M204.24,89.14v7.84h-2.15v-6.01c0-1.2-.16-2.03-.48-2.51-.32-.47-.88-.71-1.68-.71-.45,0-.86,.1-1.23,.31-.37,.2-.8,.56-1.27,1.08v7.84h-2.14v-10.8h2.14v1.42c1.09-1.09,2.15-1.63,3.19-1.63,1.37,0,2.43,.65,3.18,1.95,1.14-1.31,2.34-1.97,3.58-1.97,1.05,0,1.91,.38,2.59,1.15s1.02,1.94,1.02,3.51v6.37h-2.14v-6.4c0-.9-.18-1.59-.55-2.07-.37-.48-.9-.72-1.58-.72-.88,0-1.71,.45-2.48,1.34Z"/><path class="d" d="M221.11,96.99v-1.39c-.45,.5-.97,.88-1.56,1.16s-1.16,.41-1.74,.41c-.68,0-1.31-.17-1.88-.51-.57-.34-1.01-.8-1.3-1.39-.29-.58-.44-1.55-.44-2.91v-6.19h2.14v6.15c0,1.13,.16,1.93,.49,2.37,.32,.45,.89,.67,1.71,.67,1.02,0,1.88-.5,2.59-1.49v-7.71h2.14v10.8h-2.14Z"/><path class="d" d="M226.04,96.21v-2.3c.6,.42,1.22,.76,1.85,1.03,.63,.26,1.16,.39,1.59,.39s.83-.11,1.15-.33c.32-.22,.48-.48,.48-.79s-.1-.57-.31-.78-.65-.51-1.34-.9c-1.38-.77-2.28-1.42-2.71-1.97-.43-.54-.64-1.14-.64-1.78,0-.83,.32-1.51,.97-2.03,.65-.53,1.48-.79,2.49-.79s2.14,.3,3.25,.89v2.11c-1.27-.77-2.3-1.15-3.11-1.15-.42,0-.75,.09-1,.26-.25,.18-.38,.41-.38,.7,0,.25,.11,.49,.34,.72,.23,.23,.64,.5,1.21,.82l.76,.43c1.8,1.02,2.7,2.14,2.7,3.38,0,.88-.35,1.61-1.04,2.18-.69,.57-1.58,.85-2.67,.85-.64,0-1.21-.07-1.71-.21-.5-.14-1.13-.39-1.89-.76Z"/><path class="d" d="M237.23,81.64c.35,0,.65,.12,.9,.36,.25,.24,.38,.54,.38,.89s-.13,.64-.38,.89c-.25,.25-.55,.38-.9,.38-.33,0-.62-.13-.87-.38-.25-.25-.38-.55-.38-.89s.12-.62,.38-.87c.25-.25,.54-.38,.87-.38Zm-1.06,4.54h2.14v10.8h-2.14v-10.8Z"/><path class="d" d="M249.81,94.46v2.11c-1.07,.4-2.12,.6-3.15,.6-1.69,0-3.04-.5-4.04-1.5-1.01-1-1.51-2.34-1.51-4.03s.49-3.07,1.47-4.11c.98-1.04,2.27-1.56,3.86-1.56,.56,0,1.05,.05,1.5,.16,.44,.11,.99,.3,1.64,.59v2.28c-1.08-.69-2.08-1.03-3.01-1.03s-1.75,.34-2.37,1.02c-.62,.68-.93,1.54-.93,2.59,0,1.1,.33,1.98,1,2.63,.67,.65,1.57,.97,2.71,.97,.82,0,1.76-.24,2.83-.72Z"/></g><path class="d" d="M276.06,1.84V119.74H1.84V1.84H276.06m1.84-1.84H0V121.58H277.89V0h0Z"/></g></g></g></svg>