<?xml version="1.0" encoding="UTF-8"?><svg id="Calque_2" xmlns="http://www.w3.org/2000/svg" viewBox="0 0 728.5 153.14"><defs><style>.cls-1{fill:#1d1d1b;}</style></defs><g id="Calque_1-2"><g><path class="cls-1" d="M66.73,153.14l-21.33-21.51,9.29-9.66v-25.16l-20.6-20.96v46.12l9.48,9.66-21.51,21.51L.91,131.63l9.48-9.66V28.98L0,18.96,18.96,0h31.72l26.98,26.8v23.88l-16.59,16.59,17.5,17.87v36.83l9.66,9.66-21.51,21.51ZM32.82,17.14V63.99l23.7-23.34-23.7-23.52Z"/><path class="cls-1" d="M117.95,107.56v6.93l6.2,6.02,19.32-19.33,17.32,16.96-35.37,35-30.99-31.17V62.17L127.25,29.35l34.27,34.64-43.57,43.57Zm0-13.31l19.14-18.96-19.14-19.69v38.65Z"/><path class="cls-1" d="M238.46,60.52v57.61l-35.55,35-32.63-32.63V60.52l-9.66-9.66,21.52-21.51,21.33,21.51-9.3,9.66v46.12l20.42,20.42V60.52l-9.48-9.66,21.33-21.51,21.33,21.51-9.3,9.66Z"/><path class="cls-1" d="M274.19,153.14l-21.33-21.51,9.66-9.66v-40.65l-9.12-9.12,23.52-23.7,9.48,9.3V121.96l9.3,9.66-21.51,21.51Zm2.55-109.75l-18.41-18.05,18.41-18.41,18.05,18.41-18.05,18.05Z"/><path class="cls-1" d="M378.65,60.52v57.61l-35.55,35-32.63-32.63V60.52l-9.66-9.66,21.52-21.51,21.33,21.51-9.3,9.66v46.12l20.42,20.42V60.52l-9.48-9.66,21.33-21.51,21.33,21.51-9.3,9.66Z"/><path class="cls-1" d="M420.4,153.14l-30.99-31.17V62.35l32.82-33,33.55,33.73v55.06l18.41,18.23-16.96,16.59-18.23-18.05-18.6,18.23Zm11.67-78.21l-19.14-19.33v59.07l6.02,6.02,13.13-13.13v-32.63Z"/><path class="cls-1" d="M492.05,153.14l-21.33-21.51,9.66-9.66V24.06L504.27,.36V121.96l9.3,9.66-21.51,21.51Z"/><path class="cls-1" d="M606.17,145.85h-26.98l38.65-111.03h-15.13l-8.39,8.75-21.51-21.69L594.32,.36l7.84,8.02h51.05l-47.03,137.46Z"/><path class="cls-1" d="M693.13,153.14l-31.17-31.17V32.99L694.96,.18l33.55,33.54V118.14l-35.37,35Zm11.67-107.56l-19.14-19.14V114.49l6.2,6.02,12.94-12.94V45.58Z"/></g></g></svg>