<?xml version="1.0" encoding="UTF-8"?><svg id="Calque_2" xmlns="http://www.w3.org/2000/svg" viewBox="0 0 722.85 303.43"><defs><style>.cls-1{fill:#1d1d1b;}</style></defs><g id="Calque_1-2"><g><path class="cls-1" d="M79.42,166.32L25.68,89.83v76.48H0V1.13H54.53c13.27,0,24.06,4.75,32.36,14.26,7.62,8.6,11.65,19.05,12.11,31.34,.53,14.78-3.28,26.4-11.43,34.85-6.41,6.79-15.39,11.24-26.93,13.35l50.12,71.39h-31.34ZM37.11,70.83c16.82,0,27.49-2.34,32.02-7.01,3.09-3.24,4.49-8.6,4.19-16.07-.15-4.37-1.17-8.3-3.05-11.77-3.17-6.11-8.41-9.16-15.73-9.16H25.68v44.01h11.43Z"/><path class="cls-1" d="M232.16,139.39c-5.2,7.99-11.99,14.44-20.37,19.35-9.73,5.88-20.25,8.82-31.57,8.82-17.27,0-32.02-6.22-44.24-18.67-12.22-12.37-18.33-27.34-18.33-44.92s6.11-32.54,18.33-44.92c12.22-12.45,26.96-18.67,44.24-18.67s31.94,6.22,44.24,18.67c12.22,12.37,18.33,27.34,18.33,44.92v10.75h-96.62c2.11,8.22,6.49,14.82,13.12,19.8,6.26,4.53,13.24,6.79,20.93,6.79,12.6,0,22.33-5.02,29.19-15.05l22.74,13.12Zm-17.88-48.54c-2.64-7.17-7.01-12.97-13.12-17.42-6.26-4.53-13.24-6.79-20.93-6.79s-14.67,2.26-20.93,6.79c-6.11,4.45-10.49,10.26-13.12,17.42h68.11Z"/><path class="cls-1" d="M302.99,166.32l-53.4-124.68h27.95l32.13,74.9,32.02-74.9h27.95l-53.29,124.68h-13.35Z"/><path class="cls-1" d="M404.59,4.13c2.72,2.75,4.07,6.09,4.07,10.01s-1.36,7.26-4.07,10.01c-2.72,2.75-6.07,4.13-10.07,4.13s-7.26-1.37-10.01-4.13c-2.75-2.75-4.13-6.09-4.13-10.01s1.37-7.26,4.13-10.01c2.75-2.75,6.09-4.13,10.01-4.13s7.35,1.37,10.07,4.13Zm-22.97,162.19h25.68V41.64h-25.68v124.68Z"/><path class="cls-1" d="M472.81,166.32l-53.4-124.68h27.95l32.13,74.9,32.02-74.9h27.95l-53.29,124.68h-13.35Z"/><path class="cls-1" d="M670.13,166.32h-26.25v-10.75c-10.86,7.99-22.97,11.99-36.32,11.99-17.27,0-32.02-6.22-44.24-18.67-12.22-12.37-18.33-27.34-18.33-44.92s6.11-32.54,18.33-44.92c12.22-12.45,26.96-18.67,44.24-18.67,13.35,0,25.46,3.96,36.32,11.88v-10.64h26.25v124.68Zm-62.57-25c9.96,0,18.52-3.62,25.68-10.86,7.09-7.31,10.64-16.14,10.64-26.47s-3.55-19.16-10.64-26.47c-7.17-7.24-15.73-10.86-25.68-10.86s-18.63,3.62-25.8,10.86c-7.01,7.31-10.52,16.14-10.52,26.47s3.51,19.16,10.52,26.47c7.16,7.24,15.76,10.86,25.8,10.86Z"/><path class="cls-1" d="M697.28,1.13h25.57V166.32h-25.57V1.13Z"/></g><g><path class="cls-1" d="M143.72,200.68h62.48v15.81h-46.67v27.03h46.67v15.81h-46.67v27.31h46.67v15.74h-62.48v-101.7Z"/><path class="cls-1" d="M294.67,302.45h-16.16v-6.48c-6.69,4.97-14.14,7.45-22.36,7.45-10.64,0-19.71-3.86-27.24-11.56-7.52-7.62-11.28-16.81-11.28-27.59s3.76-20.04,11.28-27.65c7.52-7.66,16.6-11.49,27.24-11.49,8.22,0,15.67,2.44,22.36,7.31v-31.76h16.16v101.77Zm-38.52-15.19c6.13,0,11.4-2.25,15.81-6.76,4.36-4.5,6.55-9.92,6.55-16.23s-2.18-11.8-6.55-16.3c-4.41-4.5-9.68-6.76-15.81-6.76s-11.47,2.25-15.88,6.76c-4.32,4.5-6.48,9.94-6.48,16.3s2.16,11.73,6.48,16.23c4.41,4.5,9.71,6.76,15.88,6.76Z"/><path class="cls-1" d="M324.21,202.53c1.67,1.7,2.51,3.75,2.51,6.16s-.84,4.47-2.51,6.16c-1.67,1.7-3.74,2.54-6.2,2.54s-4.47-.85-6.16-2.54c-1.7-1.7-2.54-3.75-2.54-6.16s.85-4.47,2.54-6.16c1.69-1.7,3.75-2.54,6.16-2.54s4.53,.85,6.2,2.54Zm-14.14,99.86h15.81v-76.76h-15.81v76.76Z"/><path class="cls-1" d="M363.28,225.62h10.38v15.81h-10.38v60.95h-15.81v-60.95h-10.31v-15.81h10.31v-24.94h15.81v24.94Z"/><path class="cls-1" d="M399.02,202.53c1.67,1.7,2.51,3.75,2.51,6.16s-.84,4.47-2.51,6.16c-1.67,1.7-3.74,2.54-6.2,2.54s-4.47-.85-6.16-2.54c-1.7-1.7-2.54-3.75-2.54-6.16s.85-4.47,2.54-6.16c1.69-1.7,3.75-2.54,6.16-2.54s4.53,.85,6.2,2.54Zm-14.14,99.86h15.81v-76.76h-15.81v76.76Z"/><path class="cls-1" d="M452.94,224.85c10.59,0,19.67,3.83,27.24,11.49,7.52,7.62,11.28,16.83,11.28,27.65s-3.76,20.04-11.28,27.65c-7.57,7.66-16.65,11.49-27.24,11.49s-19.71-3.83-27.24-11.49c-7.52-7.62-11.28-16.83-11.28-27.65s3.76-20.04,11.28-27.65c7.52-7.66,16.6-11.49,27.24-11.49Zm0,62.14c6.13,0,11.4-2.23,15.81-6.69,4.36-4.5,6.55-9.94,6.55-16.3s-2.18-11.8-6.55-16.3c-4.41-4.46-9.68-6.69-15.81-6.69s-11.47,2.23-15.88,6.69c-4.32,4.5-6.48,9.94-6.48,16.3s2.16,11.8,6.48,16.3c4.41,4.46,9.71,6.69,15.88,6.69Z"/><path class="cls-1" d="M539.73,224.09c9.75,0,18.09,3.76,25.01,11.28,6.92,7.48,10.38,16.51,10.38,27.1v39.91h-15.74v-39.91c0-6.22-1.93-11.54-5.78-15.95-3.86-4.41-8.48-6.62-13.86-6.62s-10.01,2.2-13.86,6.62c-3.81,4.41-5.71,9.73-5.71,15.95v39.91h-15.81v-76.76h15.81v4.88c5.9-4.27,12.42-6.41,19.57-6.41Z"/></g></g></svg>