<?xml version="1.0" encoding="UTF-8"?><svg id="Calque_2" xmlns="http://www.w3.org/2000/svg" viewBox="0 0 722.42 119.57"><defs><style>.cls-1{fill:#1d1d1b;}</style></defs><g id="Calque_1-2"><g><path class="cls-1" d="M3.86,70.87l-.34-27.88c0-7.28-.11-17.3-.34-30.06C2.97,7.45,1.9,3.19,0,.17H39.3c8.62,.23,15.39,4.31,20.32,12.26,4.03,6.38,6.05,13.27,6.05,20.66,0,8.4-1.46,15.68-4.37,21.83-2.02,4.15-5.2,7.78-9.57,10.91,9.07,24.41,17.02,41.98,23.85,52.73h-28.55c1.45-.89,2.18-2.74,2.18-5.54,0-5.37-4.48-19.09-13.44-41.14l-8.4,1.18-3.36-.17-.17,16.96c-.11,14,.89,23.57,3.02,28.72H1.68c1.12-3.36,1.79-8.23,2.02-14.61,.22-8.06,.28-19.09,.17-33.08ZM24.02,9.91V63.48c1.01,.23,2.52,.34,4.53,.34,3.25,0,6.44-2.63,9.57-7.89,3.58-5.93,5.37-12.71,5.37-20.32,0-5.37-1.01-10.8-3.02-16.29-2.58-6.83-5.99-10.25-10.24-10.25-1.68,0-3.75,.28-6.21,.84Z"/><path class="cls-1" d="M127.96,59.78l-.34,34.09c0,7.05,.06,11.03,.17,11.92,.34,1.91,1.45,2.85,3.36,2.85,.67,0,2.13-.17,4.37-.5,7.28-1,11.98-1.96,14.11-2.85,2.8-1.23,6.6-4.31,11.42-9.24-.67,5.15-1.85,12.65-3.53,22.5h-25.36c.11,0-5.21,0-15.95,0-6.49-.11-11.87-.11-16.12,0,.9-2.24,1.45-3.8,1.68-4.7,.56-1.68,.9-3.86,1.01-6.55,.34-6.05,.5-17.47,.5-34.26v-29.89c0-8.4-.06-16.68-.17-24.85-.23-5.6-.56-9.52-1.01-11.75-.23-1.23-1.01-3.25-2.35-6.05,2.02-.11,5.21-.11,9.57,0h48.2c.11,.11-.17,2.97-.84,8.56l-1.17,9.07c-1.46-2.24-2.63-3.55-3.53-3.95-.9-.39-2.97-.7-6.21-.92-5.26-.34-11.25-.39-17.97-.17V45.68h8.06c5.15,0,8.4-.11,9.74-.34,2.12-.22,4.2-.95,6.21-2.18v19.31c-2.24-1.79-6.38-2.69-12.43-2.69h-11.42Z"/><path class="cls-1" d="M236.61,51.56l-8.4,38.12c-3.7,16.68-5.54,25.64-5.54,26.87,0,.79,.11,1.46,.34,2.02h-15.78c-1.68-.23-3.25-.23-4.7,0,.89-.56,1.34-2.02,1.34-4.38,0-3.14-1.01-9.26-3.02-18.36-3.02-13.58-4.93-22.28-5.71-26.1l-10.24-54.73c-1.01-5.61-2.74-10.5-5.2-14.65h27.04c-1.23,2.13-1.85,4.26-1.85,6.38,0,1.79,.17,4.03,.5,6.72,.9,6.49,2.29,16.29,4.2,29.39l6.89,41.31c.45-1.9,1.9-9.41,4.37-22.5l3.02-16.79c3.8-20.49,5.71-33.64,5.71-39.46,0-1.46-.23-3.13-.67-5.04h22.5c-1.23,1.91-2.02,3.25-2.35,4.03-.9,1.91-1.91,4.93-3.02,9.07-2.13,8.29-5.26,20.99-9.4,38.12Z"/><path class="cls-1" d="M298.74,44.34v25.53c0,10.41,.11,19.25,.34,26.53,.33,9.85,1.51,17.24,3.53,22.17h-27.04c1.45-4.26,2.29-11.59,2.52-22,.11-6.38,.17-15.56,.17-27.54l-.34-50.38c0-7.16-.95-13.27-2.86-18.31,1.34-.11,3.58-.11,6.72,0h20.32c-.67,1.34-1.51,4.42-2.52,9.24-.56,5.94-.84,17.52-.84,34.76Z"/><path class="cls-1" d="M383.38,51.56l-8.4,38.12c-3.7,16.68-5.54,25.64-5.54,26.87,0,.79,.11,1.46,.34,2.02h-15.78c-1.68-.23-3.25-.23-4.7,0,.89-.56,1.34-2.02,1.34-4.38,0-3.14-1.01-9.26-3.02-18.36-3.02-13.58-4.93-22.28-5.71-26.1l-10.24-54.73c-1.01-5.61-2.74-10.5-5.2-14.65h27.04c-1.23,2.13-1.85,4.26-1.85,6.38,0,1.79,.17,4.03,.5,6.72,.9,6.49,2.29,16.29,4.2,29.39l6.89,41.31c.45-1.9,1.9-9.41,4.37-22.5l3.02-16.79c3.8-20.49,5.71-33.64,5.71-39.46,0-1.46-.23-3.13-.67-5.04h22.5c-1.23,1.91-2.02,3.25-2.35,4.03-.9,1.91-1.91,4.93-3.02,9.07-2.13,8.29-5.26,20.99-9.4,38.12Z"/><path class="cls-1" d="M458.61,46.85l4.53,23.85c5.6,29.56,10.8,45.51,15.62,47.86h-14.27c.34,0-2.13-.17-7.39-.5-3.92-.22-7.61-.05-11.08,.5l2.18-3.58c-.11-3.17-.78-10.38-2.02-21.61h-20.32c-2.13,10.89-3.19,17.36-3.19,19.4,0,2.72,.61,4.65,1.85,5.78-1.12-.11-3.3-.11-6.55,0h-20.99c3.02-1.68,5.43-5.71,7.22-12.09,1.34-4.37,4.2-17.13,8.56-38.29l4.7-22.5c1.79-7.95,3.58-15.9,5.37-23.85,1.57-6.83,2.35-11.64,2.35-14.44,0-3.92-1.46-6.38-4.36-7.39h37.28c-4.37,1.57-6.55,4.82-6.55,9.74,0,2.8,.73,7.56,2.18,14.27,2.91,13.77,4.53,21.39,4.87,22.84Zm-29.72,24.35h13.94l-6.72-43.32-7.22,43.32Z"/><path class="cls-1" d="M527.96,40.97l-.34,22.67v27.04c0,6.49,.17,10.58,.5,12.26,.67,2.13,2.13,3.19,4.37,3.19,1.23,0,3.53-.34,6.89-1.01,4.7-.89,8.79-2.8,12.26-5.71,2.02-2.01,3.97-4.03,5.88-6.04-1.23,6.16-2.63,14.55-4.2,25.19-4.03-.23-9.74-.23-17.13,0-11.98,0-17.41,0-16.29,0h-17.63c1.34-2.8,2.18-5.6,2.52-8.4,.78-4.81,1.18-23.62,1.18-56.43V21.83c0-9.52-1.07-16.74-3.19-21.66h28.55c-.56,1.01-1.12,2.07-1.68,3.19-.56,1.12-.9,2.63-1.01,4.53-.11,1.01-.34,12.04-.67,33.08Z"/><path class="cls-1" d="M633.59,1.01c5.82,0,11.53,1.34,17.13,4.03l-5.04,11.42c-1.46-2.8-2.35-4.37-2.69-4.7-1.79-1.9-4.59-2.85-8.4-2.85-5.26,0-9.24,2.3-11.92,6.88-1.46,2.58-2.86,7.56-4.2,14.95-1.34,7.39-1.91,13.77-1.68,19.14,3.13-5.93,8.4-8.9,15.79-8.9,13.88,0,20.82,11.59,20.82,34.76,0,16.68-2.32,28.16-6.97,34.43-4.65,6.27-11.39,9.41-20.24,9.41-10.41,0-18.28-4.56-23.59-13.69-5.32-9.12-7.98-22.7-7.98-40.72s2.35-33.48,7.05-44c6.05-13.44,16.68-20.15,31.91-20.15Zm2.02,79.1c.11-8.84-.56-15.9-2.02-21.16-1.79-6.04-4.48-8.9-8.06-8.56-2.02,.11-4.2,2.85-6.55,8.23-2.8,6.49-4.2,13.83-4.2,22,0,7.28,1.23,13.88,3.7,19.81,2.24,5.26,4.53,8.01,6.88,8.23,6.49,.45,9.91-9.07,10.24-28.55Z"/><path class="cls-1" d="M722.42,59.03c0,21.36-2.13,36.61-6.38,45.78-4.59,9.84-12.37,14.76-23.34,14.76-12.65,0-21.05-6.65-25.19-19.96-2.58-7.94-3.86-21.02-3.86-39.24,0-17.1,1.29-29.74,3.86-37.9,4.37-14.31,12.99-21.46,25.86-21.46,11.31,0,19.14,5.03,23.51,15.09,3.7,8.5,5.54,22.81,5.54,42.93Zm-20.32,1.26c0-33.92-2.85-50.88-8.56-50.88-6.27,0-9.41,17.52-9.41,52.56,0,31.35,2.91,47.02,8.73,47.02,6.16,0,9.24-16.23,9.24-48.7Z"/></g></g></svg>